<?xml version="1.0" encoding="iso-8859-1"?>
<!-- Generator: Adobe Illustrator 19.0.0, SVG Export Plug-In . SVG Version: 6.00 Build 0)  -->
<svg xmlns="http://www.w3.org/2000/svg" xmlns:xlink="http://www.w3.org/1999/xlink" version="1.1" id="Capa_1" x="0px" y="0px" viewBox="0 0 480 480" style="enable-background:new 0 0 480 480;" xml:space="preserve" width="512px" height="512px">
<g>
	<g>
		<rect x="120" y="184" width="64" height="16" fill="#454545"/>
	</g>
</g>
<g>
	<g>
		<rect x="120" y="152" width="88" height="16" fill="#454545"/>
	</g>
</g>
<g>
	<g>
		<rect x="152" y="120" width="56" height="16" fill="#454545"/>
	</g>
</g>
<g>
	<g>
		<path d="M200,32h-72c-4.418,0-8,3.582-8,8v56c0,4.418,3.582,8,8,8h72c4.418,0,8-3.582,8-8V40C208,35.582,204.418,32,200,32z     M192,88h-56V48h56V88z" fill="#454545"/>
	</g>
</g>
<g>
	<g>
		<path d="M352,32h-72c-4.418,0-8,3.582-8,8v56c0,4.418,3.582,8,8,8h72c4.418,0,8-3.582,8-8V40C360,35.582,356.418,32,352,32z     M344,88h-56V48h56V88z" fill="#454545"/>
	</g>
</g>
<g>
	<g>
		<path d="M440,352.8V304c0-4.418-3.582-8-8-8H248v-32h176c4.418,0,8-3.582,8-8V24c0-4.418-3.582-8-8-8h-24V8c0-4.418-3.582-8-8-8    H264c-2.122,0-4.156,0.844-5.656,2.344L240,20.688L221.656,2.344C220.156,0.844,218.122,0,216,0H88c-4.418,0-8,3.582-8,8v8H56    c-4.418,0-8,3.582-8,8v232c0,4.418,3.582,8,8,8h176v32H48c-4.418,0-8,3.582-8,8v32H16c-4.418,0-8,3.582-8,8v128    c0,4.418,3.582,8,8,8h352c4.418,0,8-3.582,8-8V344c0-4.418-3.582-8-8-8H56v-24h368v40.8c-18.611,3.827-31.976,20.199-32,39.2v32    c0,22.091,17.909,40,40,40c22.091,0,40-17.909,40-40v-32C471.976,372.999,458.611,356.627,440,352.8z M400,224V32h16v216H251.312    l16-16H392C396.418,232,400,228.418,400,224z M248,35.312L267.312,16H384v200H264c-2.122,0-4.156,0.844-5.656,2.344L248,228.688    V35.312z M360,352v112H24V352H360z M64,248V32h16v192c0,4.418,3.582,8,8,8h124.688l16,16H64z M232,228.688l-10.344-10.344    c-1.5-1.5-3.534-2.344-5.656-2.344H96V16h116.688L232,35.312V228.688z M456,424c0,13.255-10.745,24-24,24s-24-10.745-24-24v-32    c0-13.255,10.745-24,24-24s24,10.745,24,24V424z" fill="#454545"/>
	</g>
</g>
<g>
	<g>
		<rect x="40" y="432" width="32" height="16" fill="#454545"/>
	</g>
</g>
<g>
	<g>
		<rect x="40" y="400" width="16" height="16" fill="#454545"/>
	</g>
</g>
<g>
	<g>
		<rect x="40" y="368" width="16" height="16" fill="#454545"/>
	</g>
</g>
<g>
	<g>
		<rect x="88" y="432" width="208" height="16" fill="#454545"/>
	</g>
</g>
<g>
	<g>
		<rect x="72" y="400" width="16" height="16" fill="#454545"/>
	</g>
</g>
<g>
	<g>
		<rect x="72" y="368" width="16" height="16" fill="#454545"/>
	</g>
</g>
<g>
	<g>
		<rect x="104" y="400" width="16" height="16" fill="#454545"/>
	</g>
</g>
<g>
	<g>
		<rect x="104" y="368" width="16" height="16" fill="#454545"/>
	</g>
</g>
<g>
	<g>
		<rect x="136" y="400" width="16" height="16" fill="#454545"/>
	</g>
</g>
<g>
	<g>
		<rect x="136" y="368" width="16" height="16" fill="#454545"/>
	</g>
</g>
<g>
	<g>
		<rect x="168" y="400" width="16" height="16" fill="#454545"/>
	</g>
</g>
<g>
	<g>
		<rect x="168" y="368" width="16" height="16" fill="#454545"/>
	</g>
</g>
<g>
	<g>
		<rect x="200" y="400" width="16" height="16" fill="#454545"/>
	</g>
</g>
<g>
	<g>
		<rect x="200" y="368" width="16" height="16" fill="#454545"/>
	</g>
</g>
<g>
	<g>
		<rect x="232" y="400" width="16" height="16" fill="#454545"/>
	</g>
</g>
<g>
	<g>
		<rect x="232" y="368" width="16" height="16" fill="#454545"/>
	</g>
</g>
<g>
	<g>
		<rect x="264" y="400" width="16" height="16" fill="#454545"/>
	</g>
</g>
<g>
	<g>
		<rect x="264" y="368" width="16" height="16" fill="#454545"/>
	</g>
</g>
<g>
	<g>
		<rect x="296" y="400" width="16" height="16" fill="#454545"/>
	</g>
</g>
<g>
	<g>
		<rect x="296" y="368" width="16" height="16" fill="#454545"/>
	</g>
</g>
<g>
	<g>
		<rect x="312" y="432" width="32" height="16" fill="#454545"/>
	</g>
</g>
<g>
	<g>
		<rect x="328" y="400" width="16" height="16" fill="#454545"/>
	</g>
</g>
<g>
	<g>
		<rect x="328" y="368" width="16" height="16" fill="#454545"/>
	</g>
</g>
<g>
	<g>
		<rect x="424" y="384" width="16" height="16" fill="#454545"/>
	</g>
</g>
<g>
	<g>
		<rect x="120" y="120" width="16" height="16" fill="#454545"/>
	</g>
</g>
<g>
	<g>
		<rect x="272" y="184" width="64" height="16" fill="#454545"/>
	</g>
</g>
<g>
	<g>
		<rect x="272" y="152" width="88" height="16" fill="#454545"/>
	</g>
</g>
<g>
	<g>
		<rect x="304" y="120" width="56" height="16" fill="#454545"/>
	</g>
</g>
<g>
	<g>
		<rect x="272" y="120" width="16" height="16" fill="#454545"/>
	</g>
</g>
<g>
</g>
<g>
</g>
<g>
</g>
<g>
</g>
<g>
</g>
<g>
</g>
<g>
</g>
<g>
</g>
<g>
</g>
<g>
</g>
<g>
</g>
<g>
</g>
<g>
</g>
<g>
</g>
<g>
</g>
</svg>
