<?xml version="1.0" encoding="iso-8859-1"?>
<!-- Generator: Adobe Illustrator 19.0.0, SVG Export Plug-In . SVG Version: 6.00 Build 0)  -->
<svg xmlns="http://www.w3.org/2000/svg" xmlns:xlink="http://www.w3.org/1999/xlink" version="1.1" id="Capa_1" x="0px" y="0px" viewBox="0 0 480 480" style="enable-background:new 0 0 480 480;" xml:space="preserve" width="512px" height="512px">
<g>
	<g>
		<rect x="232" y="168" width="16" height="16" fill="#FFFFFF"/>
	</g>
</g>
<g>
	<g>
		<rect x="232" y="200" width="16" height="16" fill="#FFFFFF"/>
	</g>
</g>
<g>
	<g>
		<rect x="232" y="232" width="16" height="16" fill="#FFFFFF"/>
	</g>
</g>
<g>
	<g>
		<path d="M280,96h-80c-26.499,0.026-47.974,21.501-48,48v128c0,4.418,3.582,8,8,8h160c4.418,0,8-3.582,8-8V144    C327.974,117.501,306.499,96.026,280,96z M255.352,112L240,131.2L224.648,112H255.352z M192,264h-24v-16h24V264z M312,264h-24v-16    h24V264z M312,232h-24v-80h-16v112h-64V152h-16v80h-24v-88c0-17.673,14.327-32,32-32h4.152l29.6,37    c2.759,3.451,7.794,4.011,11.244,1.252c0.462-0.37,0.882-0.789,1.252-1.252l29.6-37H280c17.673,0,32,14.327,32,32V232z" fill="#FFFFFF"/>
	</g>
</g>
<g>
	<g>
		<path d="M256,0h-32c-13.255,0-24,10.745-24,24v32c0,13.255,10.745,24,24,24h32c13.255,0,24-10.745,24-24V24    C280,10.745,269.255,0,256,0z M264,56c0,4.418-3.582,8-8,8h-32c-4.418,0-8-3.582-8-8V24c0-4.418,3.582-8,8-8h32    c4.418,0,8,3.582,8,8V56z" fill="#FFFFFF"/>
	</g>
</g>
<g>
	<g>
		<rect x="384" y="368" width="16" height="16" fill="#FFFFFF"/>
	</g>
</g>
<g>
	<g>
		<rect x="384" y="400" width="16" height="16" fill="#FFFFFF"/>
	</g>
</g>
<g>
	<g>
		<rect x="384" y="432" width="16" height="16" fill="#FFFFFF"/>
	</g>
</g>
<g>
	<g>
		<path d="M432,296h-80c-26.499,0.026-47.974,21.501-48,48v128c0,4.418,3.582,8,8,8h160c4.418,0,8-3.582,8-8V344    C479.974,317.501,458.499,296.026,432,296z M407.352,312L392,331.2L376.648,312H407.352z M344,464h-24v-16h24V464z M464,464h-24    v-16h24V464z M464,432h-24v-80h-16v112h-64V352h-16v80h-24v-88c0-17.673,14.327-32,32-32h4.152l29.6,37    c2.759,3.451,7.794,4.011,11.244,1.252c0.462-0.37,0.882-0.789,1.252-1.252l29.6-37H432c17.673,0,32,14.327,32,32V432z" fill="#FFFFFF"/>
	</g>
</g>
<g>
	<g>
		<path d="M408,200h-32c-13.255,0-24,10.745-24,24v32c0,13.255,10.745,24,24,24h32c13.255,0,24-10.745,24-24v-32    C432,210.745,421.255,200,408,200z M416,256c0,4.418-3.582,8-8,8h-32c-4.418,0-8-3.582-8-8v-32c0-4.418,3.582-8,8-8h32    c4.418,0,8,3.582,8,8V256z" fill="#FFFFFF"/>
	</g>
</g>
<g>
	<g>
		<rect x="80" y="368" width="16" height="16" fill="#FFFFFF"/>
	</g>
</g>
<g>
	<g>
		<rect x="80" y="400" width="16" height="16" fill="#FFFFFF"/>
	</g>
</g>
<g>
	<g>
		<rect x="80" y="432" width="16" height="16" fill="#FFFFFF"/>
	</g>
</g>
<g>
	<g>
		<path d="M128,296H48c-26.499,0.026-47.974,21.501-48,48v128c0,4.418,3.582,8,8,8h160c4.418,0,8-3.582,8-8V344    C175.974,317.501,154.499,296.026,128,296z M103.352,312L88,331.2L72.648,312H103.352z M40,464H16v-16h24V464z M160,464h-24v-16    h24V464z M160,432h-24v-80h-16v112H56V352H40v80H16v-88c0-17.673,14.327-32,32-32h4.152l29.6,37    c2.759,3.451,7.794,4.011,11.244,1.252c0.462-0.37,0.882-0.789,1.252-1.252l29.6-37H128c17.673,0,32,14.327,32,32V432z" fill="#FFFFFF"/>
	</g>
</g>
<g>
	<g>
		<path d="M104,200H72c-13.255,0-24,10.745-24,24v32c0,13.255,10.745,24,24,24h32c13.255,0,24-10.745,24-24v-32    C128,210.745,117.255,200,104,200z M112,256c0,4.418-3.582,8-8,8H72c-4.418,0-8-3.582-8-8v-32c0-4.418,3.582-8,8-8h32    c4.418,0,8,3.582,8,8V256z" fill="#FFFFFF"/>
	</g>
</g>
<g>
	<g>
		<polygon points="248,384 248,296 232,296 232,384 192,384 192,400 288,400 288,384   " fill="#FFFFFF"/>
	</g>
</g>
<g>
	<g>
		<path d="M136,0H8C3.582,0,0,3.582,0,8v96c0,4.418,3.582,8,8,8h19.72l13.6,20.44c2.451,3.676,7.418,4.669,11.094,2.218    c0.878-0.586,1.632-1.339,2.218-2.218L68.28,112H136c4.418,0,8-3.582,8-8V8C144,3.582,140.418,0,136,0z M128,96H64    c-2.674,0-5.172,1.335-6.656,3.56L48,113.6l-9.344-14.04C37.172,97.335,34.674,96,32,96H16V16h112V96z" fill="#FFFFFF"/>
	</g>
</g>
<g>
	<g>
		<rect x="64" y="32" width="48" height="16" fill="#FFFFFF"/>
	</g>
</g>
<g>
	<g>
		<rect x="32" y="64" width="80" height="16" fill="#FFFFFF"/>
	</g>
</g>
<g>
	<g>
		<path d="M472,0H344c-4.418,0-8,3.582-8,8v96c0,4.418,3.582,8,8,8h67.72l13.6,20.44c2.451,3.676,7.418,4.669,11.094,2.218    c0.878-0.586,1.632-1.339,2.218-2.218L452.28,112H472c4.418,0,8-3.582,8-8V8C480,3.582,476.418,0,472,0z M464,96h-16    c-2.674,0-5.172,1.335-6.656,3.56L432,113.6l-9.344-14.016C421.177,97.35,418.679,96.005,416,96h-64V16h112V96z" fill="#FFFFFF"/>
	</g>
</g>
<g>
	<g>
		<rect x="400" y="32" width="48" height="16" fill="#FFFFFF"/>
	</g>
</g>
<g>
	<g>
		<rect x="368" y="64" width="80" height="16" fill="#FFFFFF"/>
	</g>
</g>
<g>
	<g>
		<rect x="32" y="32" width="16" height="16" fill="#FFFFFF"/>
	</g>
</g>
<g>
	<g>
		<rect x="368" y="32" width="16" height="16" fill="#FFFFFF"/>
	</g>
</g>
<g>
</g>
<g>
</g>
<g>
</g>
<g>
</g>
<g>
</g>
<g>
</g>
<g>
</g>
<g>
</g>
<g>
</g>
<g>
</g>
<g>
</g>
<g>
</g>
<g>
</g>
<g>
</g>
<g>
</g>
</svg>
