<?xml version="1.0" encoding="iso-8859-1"?>
<!-- Generator: Adobe Illustrator 19.0.0, SVG Export Plug-In . SVG Version: 6.00 Build 0)  -->
<svg xmlns="http://www.w3.org/2000/svg" xmlns:xlink="http://www.w3.org/1999/xlink" version="1.1" id="Capa_1" x="0px" y="0px" viewBox="0 0 480 480" style="enable-background:new 0 0 480 480;" xml:space="preserve" width="512px" height="512px">
<g>
	<g>
		<rect y="416" width="16" height="16" fill="#FFFFFF"/>
	</g>
</g>
<g>
	<g>
		<rect x="32" y="416" width="64" height="16" fill="#FFFFFF"/>
	</g>
</g>
<g>
	<g>
		<rect y="448" width="96" height="16" fill="#FFFFFF"/>
	</g>
</g>
<g>
	<g>
		<rect x="16" width="16" height="16" fill="#FFFFFF"/>
	</g>
</g>
<g>
	<g>
		<rect x="48" width="64" height="16" fill="#FFFFFF"/>
	</g>
</g>
<g>
	<g>
		<rect x="16" y="32" width="96" height="16" fill="#FFFFFF"/>
	</g>
</g>
<g>
	<g>
		<rect x="400" y="8" width="16" height="16" fill="#FFFFFF"/>
	</g>
</g>
<g>
	<g>
		<rect x="432" y="8" width="48" height="16" fill="#FFFFFF"/>
	</g>
</g>
<g>
	<g>
		<rect x="400" y="40" width="80" height="16" fill="#FFFFFF"/>
	</g>
</g>
<g>
	<g>
		<rect x="384" y="368" width="16" height="16" fill="#FFFFFF"/>
	</g>
</g>
<g>
	<g>
		<rect x="416" y="368" width="64" height="16" fill="#FFFFFF"/>
	</g>
</g>
<g>
	<g>
		<rect x="384" y="400" width="96" height="16" fill="#FFFFFF"/>
	</g>
</g>
<g>
	<g>
		<path d="M462.984,312.12c-2.91-11.272-11.712-20.074-22.984-22.984V224c-0.003-3.799-2.678-7.072-6.4-7.832l-67.08-13.976    c5.822-37.902-6.054-76.38-32.224-104.408l21.28-10.584c2.725-1.362,4.441-4.153,4.424-7.2V64h16c4.418,0,8-3.582,8-8V8    c0-4.418-3.582-8-8-8h-48c-4.418,0-8,3.582-8,8v48c0,4.418,3.582,8,8,8h16v11.056l-21.848,10.92    c-54.053-45.43-134.699-38.44-180.129,15.612c-13.834,16.46-23.293,36.142-27.503,57.227l-42.52-5.8v-26.152    c17.112-4.418,27.402-21.872,22.984-38.984S73.112,60.478,56,64.896S28.598,86.768,33.016,103.88    c2.91,11.272,11.712,20.074,22.984,22.984V160c-0.001,4.001,2.955,7.388,6.92,7.928l49.552,6.752    c-0.224,3.088-0.472,6.176-0.472,9.32c0.007,28.055,9.289,55.32,26.4,77.552l-93.208,34.952c-3.125,1.171-5.194,4.159-5.192,7.496    v32H24c-4.418,0-8,3.582-8,8v48c0,4.418,3.582,8,8,8h48c4.418,0,8-3.582,8-8v-48c0-4.418-3.582-8-8-8H56v-26.456l93.536-35.072    c18.125,18.13,41.282,30.391,66.464,35.192V328h-8c-4.418,0-8,3.582-8,8v136c0,4.418,3.582,8,8,8h64c4.418,0,8-3.582,8-8V336    c0-4.418-3.582-8-8-8h-8v-18.336c47.86-9.246,86.342-44.821,99.312-91.808L424,230.504v58.632    c-17.112,4.418-27.402,21.872-22.984,38.984c4.418,17.112,21.872,27.402,38.984,22.984    C457.112,346.685,467.402,329.232,462.984,312.12z M336,48V16h32v32H336z M48,96c0-8.837,7.163-16,16-16s16,7.163,16,16    s-7.163,16-16,16S48,104.837,48,96z M64,352v32H32v-32H64z M264,464h-48V344h48V464z M232,328v-16h16v16H232z M240,296    c-27.121-0.006-53.309-9.901-73.656-27.832l17.416-6.568c42.725,31.155,102.617,21.775,133.772-20.951    c6.467-8.869,11.362-18.785,14.468-29.313l15.664,3.264C333.956,262.715,290.03,295.926,240,296z M242.808,239.496    c3.125-1.171,5.194-4.159,5.192-7.496v-17.136c8.958-2.338,16.462-8.446,20.568-16.744l47.72,9.944    c-13.247,42.104-58.117,65.497-100.221,52.25c-4.695-1.477-9.243-3.385-13.587-5.698L242.808,239.496z M240,200    c-8.837,0-16-7.163-16-16s7.163-16,16-16s16,7.163,16,16S248.837,200,240,200z M271.848,182.464    c-0.684-13.938-10.343-25.816-23.848-29.328v-12.192l40.632-20.32C308.384,135.714,319.981,159.143,320,184    c-0.003,2.806-0.153,5.61-0.448,8.4L271.848,182.464z M236.408,128.84c-2.706,1.36-4.412,4.131-4.408,7.16v17.136    c-9.75,2.507-17.752,9.457-21.6,18.76l-48.128-6.568c10.213-42.864,53.24-69.332,96.104-59.119    c4.784,1.14,9.451,2.719,13.944,4.719L236.408,128.84z M208.384,187.76c1.542,13.035,10.915,23.792,23.616,27.104v11.592    l-45.336,17C169.714,228.339,160.015,206.712,160,184c0-0.952,0.112-1.872,0.144-2.816L208.384,187.76z M350.888,198.928    l-15.688-3.264c6.582-52.609-30.73-100.593-83.34-107.175s-100.593,30.73-107.175,83.34c-3.558,28.438,5.776,56.979,25.451,77.819    l-16.104,6.04C137.196,235.596,127.978,210.214,128,184c-0.439-61.854,49.347-112.353,111.202-112.793    c61.854-0.439,112.353,49.347,112.793,111.202C352.034,187.935,351.664,193.457,350.888,198.928z M432,336    c-8.837,0-16-7.163-16-16s7.163-16,16-16s16,7.163,16,16S440.837,336,432,336z" fill="#FFFFFF"/>
	</g>
</g>
<g>
</g>
<g>
</g>
<g>
</g>
<g>
</g>
<g>
</g>
<g>
</g>
<g>
</g>
<g>
</g>
<g>
</g>
<g>
</g>
<g>
</g>
<g>
</g>
<g>
</g>
<g>
</g>
<g>
</g>
</svg>
